<?xml version="1.0" encoding="UTF-8"?>
<svg width="16px" height="16px" viewBox="0 0 16 16" version="1.1" xmlns="http://www.w3.org/2000/svg" xmlns:xlink="http://www.w3.org/1999/xlink">
    <title>编组</title>
    <g id="主页" stroke="none" stroke-width="1" fill="none" fill-rule="evenodd">
        <g id="主页-课表" transform="translate(-211, -17)">
            <g id="编组" transform="translate(211, 17)">
                <circle id="椭圆形" fill="#F0F0F0" cx="8" cy="8" r="8"></circle>
                <g id="下箭头" transform="translate(3, 4)" fill="#FFFFFF" fill-rule="nonzero">
                    <rect id="矩形" opacity="0" x="0" y="0" width="10" height="10"></rect>
                    <path d="M5.63321482,6.72956023 L8.83663505,3.1052841 C9.02051329,2.89723146 9.05174568,2.61710803 8.91721234,2.38258594 C8.78267901,2.14806385 8.50568591,1.99977066 8.20259022,2 L1.79674564,2 C1.4937696,2 1.21700749,2.14836525 1.08264042,2.38284302 C0.948273357,2.61732079 0.979559265,2.8973136 1.16336473,3.1052841 L4.36678496,6.72956023 C4.51750435,6.89999889 4.75164963,7 5,7 C5.24835015,7 5.48249543,6.89999889 5.63321482,6.72956023 L5.63321482,6.72956023 Z" id="路径"></path>
                </g>
            </g>
        </g>
    </g>
</svg>